<?xml version="1.0" encoding="UTF-8" standalone="no"?>
<!-- Created with Inkscape (http://www.inkscape.org/) -->

<svg
   xmlns:dc="http://purl.org/dc/elements/1.1/"
   xmlns:cc="http://creativecommons.org/ns#"
   xmlns:rdf="http://www.w3.org/1999/02/22-rdf-syntax-ns#"
   xmlns:svg="http://www.w3.org/2000/svg"
   xmlns="http://www.w3.org/2000/svg"
   xmlns:sodipodi="http://sodipodi.sourceforge.net/DTD/sodipodi-0.dtd"
   xmlns:inkscape="http://www.inkscape.org/namespaces/inkscape"
   width="84.154762mm"
   height="84.154762mm"
   viewBox="0 0 84.154762 84.154762"
   version="1.1"
   id="svg8"
   inkscape:version="0.92.4 (5da689c313, 2019-01-14)"
   sodipodi:docname="logo.svg">
  <defs
     id="defs2" />
  <sodipodi:namedview
     id="base"
     pagecolor="#ffffff"
     bordercolor="#666666"
     borderopacity="1.0"
     inkscape:pageopacity="0.0"
     inkscape:pageshadow="2"
     inkscape:zoom="1.4"
     inkscape:cx="239.01588"
     inkscape:cy="92.608811"
     inkscape:document-units="mm"
     inkscape:current-layer="g4586"
     showgrid="false"
     fit-margin-top="0"
     fit-margin-left="0"
     fit-margin-right="0"
     fit-margin-bottom="0"
     inkscape:window-width="1920"
     inkscape:window-height="1046"
     inkscape:window-x="-11"
     inkscape:window-y="-11"
     inkscape:window-maximized="1" />
  <metadata
     id="metadata5">
    <rdf:RDF>
      <cc:Work
         rdf:about="">
        <dc:format>image/svg+xml</dc:format>
        <dc:type
           rdf:resource="http://purl.org/dc/dcmitype/StillImage" />
        <dc:title></dc:title>
      </cc:Work>
    </rdf:RDF>
  </metadata>
  <g
     inkscape:label="Layer 1"
     inkscape:groupmode="layer"
     id="layer1"
     transform="translate(-56.85788,-138.72339)">
    <g
       id="g4586"
       transform="translate(-20.410714,119.44048)">
      <g
         id="g4596"
         inkscape:export-xdpi="100"
         inkscape:export-ydpi="100">
        <path
           style="opacity:1;vector-effect:none;fill:#d7d7f4;fill-opacity:1;stroke:#d7d7f4;stroke-width:3.77952766;stroke-linecap:butt;stroke-linejoin:miter;stroke-miterlimit:4;stroke-dasharray:none;stroke-dashoffset:0;stroke-opacity:1;paint-order:stroke fill markers"
           d="M 296.29213,232.47343 V 77.920087 H 450.84547 605.39881 V 232.47343 387.02677 H 450.84547 296.29213 Z m 193.51411,119.21462 c 19.04013,-6.01477 37.81863,-17.71708 51.79665,-32.27849 66.96899,-69.76389 33.5122,-185.13238 -60.67402,-209.22116 -61.2737,-15.671173 -127.25847,19.58797 -148.20895,79.19586 -22.79803,64.86448 9.02919,134.61973 72.98796,159.96664 26.78106,10.61335 55.38334,11.40822 84.09836,2.33715 z"
           id="path4576"
           inkscape:connector-curvature="0"
           transform="scale(0.26458333)" />
        <path
           style="opacity:1;vector-effect:none;fill:#2ca02c;fill-opacity:1;stroke:#2ca02c;stroke-width:3.77952766;stroke-linecap:butt;stroke-linejoin:miter;stroke-miterlimit:4;stroke-dasharray:none;stroke-dashoffset:0;stroke-opacity:1;paint-order:stroke fill markers"
           d="m 364.42509,307.79695 c -5.52051,-0.2332 -7.86796,-0.5235 -8.50377,-1.05162 -0.48304,-0.40123 -2.31066,-2.78771 -4.06138,-5.3033 -42.37626,-60.89007 -20.83236,-144.81377 45.6247,-177.72989 12.3615,-6.12264 27.14617,-10.46748 40.5848,-11.92684 8.5396,-0.92735 7.10989,-1.97276 12.91376,9.44265 11.08375,21.8002 15.8312,36.36398 15.84688,48.61359 0.004,2.91682 -0.26976,6.43972 -0.60777,7.82868 -1.54012,6.32869 -6.18942,11.96417 -12.24917,14.84738 -4.38596,2.08683 -9.73597,3.33833 -20.55575,4.80853 -5.13916,0.69831 -10.16817,1.50777 -11.17561,1.79881 -4.59639,1.32784 -5.81921,5.3948 -2.93246,9.75301 2.17026,3.27649 8.04754,8.66841 17.26221,15.83665 7.54651,5.87055 12.8621,9.73841 31.97702,23.26792 17.68517,12.51754 25.6972,20.24024 29.40828,28.34631 1.59926,3.49326 1.77131,8.01178 0.40465,10.62736 -5.52075,10.56584 -28.51743,17.3052 -69.23724,20.29054 -8.78101,0.64377 -53.4849,1.02394 -64.69915,0.55022 z"
           id="path4572"
           inkscape:connector-curvature="0"
           transform="scale(0.26458333)" />
        <path
           style="opacity:1;vector-effect:none;fill:#ffcc00;fill-opacity:1;stroke:#ffcc00;stroke-width:3.7795279;stroke-linecap:butt;stroke-linejoin:miter;stroke-miterlimit:4;stroke-dasharray:none;stroke-dashoffset:0;stroke-opacity:1;paint-order:stroke fill markers"
           d="m 439.52911,351.89228 c -26.57864,-2.27149 -50.58376,-13.11832 -71.40582,-32.26509 l -7.4395,-6.84093 33.35123,-0.18104 c 33.76228,-0.18327 54.58977,-1.79386 74.06552,-5.72746 21.91591,-4.42646 35.71428,-13.77551 35.71428,-24.19811 0,-11.97136 -10.31101,-22.94839 -44.20267,-47.05786 -21.60604,-15.36986 -38.67255,-29.67545 -37.19843,-31.18068 0.40797,-0.41657 7.03785,-1.77055 14.73308,-3.00883 26.20695,-4.21712 34.04348,-11.71568 33.97775,-32.51238 -0.0347,-10.98854 -5.48435,-29.02921 -13.69264,-45.32868 -2.77511,-5.51064 -5.04566,-10.45211 -5.04566,-10.98103 0,-0.048 -1.37315,-1.12022 -1.35192,-1.16315 0.96787,-1.9574 25.03237,2.32934 37.217,6.2439 49.61299,15.93917 82.83922,61.71726 82.93461,114.26482 0.13,71.61216 -59.67004,126.0887 -131.65683,119.93652 z"
           id="path4574"
           inkscape:connector-curvature="0"
           transform="scale(0.26458333)"
           sodipodi:nodetypes="sscsssscscssssss" />
        <g
           id="g4556"
           transform="translate(12.85119,-94.116071)">
          <rect
             style="opacity:1;vector-effect:none;fill:none;fill-opacity:1;stroke:#000000;stroke-width:1;stroke-linecap:butt;stroke-linejoin:miter;stroke-miterlimit:4;stroke-dasharray:none;stroke-dashoffset:0;stroke-opacity:1;paint-order:stroke fill markers"
             id="rect4548"
             width="83.154762"
             height="83.154762"
             x="64.917404"
             y="113.89898" />
          <g
             id="g4554"
             style="fill:none;stroke:#000000;stroke-width:1;stroke-miterlimit:4;stroke-dasharray:none">
            <circle
               r="32.600445"
               cy="155.5424"
               cx="106.49479"
               id="circle4550"
               style="opacity:1;vector-effect:none;fill:none;fill-opacity:1;stroke:#000000;stroke-width:1;stroke-linecap:butt;stroke-linejoin:miter;stroke-miterlimit:4;stroke-dasharray:none;stroke-dashoffset:0;stroke-opacity:1;paint-order:stroke fill markers" />
            <path
               sodipodi:nodetypes="csc"
               inkscape:connector-curvature="0"
               id="path4552"
               d="m 105.29978,122.7759 c 23.17179,40.9646 -31.137836,10.59227 6.75461,36.90774 28.69297,19.92663 -31.013933,16.30491 -31.013933,16.30491"
               style="fill:none;stroke:#000000;stroke-width:1;stroke-linecap:butt;stroke-linejoin:miter;stroke-miterlimit:4;stroke-dasharray:none;stroke-opacity:1" />
          </g>
        </g>
      </g>
    </g>
  </g>
</svg>
